<svg id="Icon_ionic-logo-nodejs" data-name="Icon ionic-logo-nodejs" xmlns="http://www.w3.org/2000/svg" width="21.429" height="25" viewBox="0 0 21.429 25">
  <path id="パス_12" data-name="パス 12" d="M8.46,20.5a1.816,1.816,0,0,1-.928-.257l-2.957-1.81c-.442-.255-.224-.346-.081-.4a6.376,6.376,0,0,0,1.392-.686.223.223,0,0,1,.221.018l2.216,1.312a.284.284,0,0,0,.275,0l8.66-5.148a.292.292,0,0,0,.135-.248V2.859a.3.3,0,0,0-.137-.253L8.6-2.677a.268.268,0,0,0-.273,0L-.324,2.608a.3.3,0,0,0-.14.251V13.283a.285.285,0,0,0,.138.245L1.9,14.866c1.318.681,2.1-.009,2.1-.815V3.8a.258.258,0,0,1,.256-.264H5.529a.26.26,0,0,1,.257.264V14.05A2.59,2.59,0,0,1,3.04,16.91,3.689,3.689,0,0,1,1,16.337L-1.32,14.954a1.948,1.948,0,0,1-.93-1.672V2.709A1.943,1.943,0,0,1-1.32,1.04L7.535-4.254a1.88,1.88,0,0,1,1.86,0L18.248,1.04a1.946,1.946,0,0,1,.93,1.669V13.282a1.951,1.951,0,0,1-.93,1.671L9.4,20.242a1.815,1.815,0,0,1-.932.257Z" transform="translate(2.25 4.5)" fill="#5a9958"/>
  <path id="パス_13" data-name="パス 13" d="M14.691,18c-4.543,0-5.907-2.223-5.907-4.167a.326.326,0,0,1,.321-.333h1.443a.326.326,0,0,1,.321.282c.217,1.519,1.178,2.19,3.82,2.19,2.348,0,3.311-.727,3.311-2.017,0-.745-.243-1.3-3.9-1.666-3.053-.312-4.942-1.011-4.942-3.536,0-2.33,1.9-3.691,5.079-3.691,3.243,0,5.376.984,5.567,3.574a.352.352,0,0,1-.087.256A.318.318,0,0,1,19.485,9H18.037a.323.323,0,0,1-.314-.261c-.309-1.192-1.193-1.645-3.485-1.645-2.565,0-2.865.9-2.865,1.59,0,.841.354,1.086,3.818,1.559,3.429.468,5.058,1.133,5.058,3.625,0,2.516-2.026,4.133-5.56,4.133Z" transform="translate(-1.707 1.152)" fill="#5a9958"/>
</svg>
