<svg xmlns="http://www.w3.org/2000/svg" width="36.817" height="25" viewBox="0 0 36.817 25">
  <path id="Icon_simple-mysql" data-name="Icon simple-mysql" d="M25.166,8.57a1.693,1.693,0,0,0-.42.051v.02h.021a3.461,3.461,0,0,0,.328.419c.083.164.153.328.236.491l.021-.023a.571.571,0,0,0,.215-.511c-.061-.072-.071-.144-.123-.215-.061-.1-.193-.153-.276-.235ZM8.851,28.81H7.429c-.046-2.4-.189-4.648-.414-6.765H7L4.84,28.81H3.758L1.611,22.045H1.6q-.237,3.044-.3,6.765H0q.127-4.524.629-8.483H2.393l2.048,6.234h.012L6.52,20.327H8.2q.557,4.637.657,8.483Zm6.162-6.259a19.181,19.181,0,0,1-2.289,6.842A3.048,3.048,0,0,1,10.3,31.039a2.394,2.394,0,0,1-.868-.212V30.07a3.937,3.937,0,0,0,.592.04,1.43,1.43,0,0,0,.993-.341,1.236,1.236,0,0,0,.453-.928,6.153,6.153,0,0,0-.353-1.448L9.557,22.551h1.4l1.115,3.62a4.861,4.861,0,0,1,.314,1.723,23.4,23.4,0,0,0,1.281-5.343h1.35ZM33.92,28.81H29.886V20.327h1.358v7.44H33.92Zm-5.093.207-1.559-.767a3.3,3.3,0,0,0,.391-.384,5.2,5.2,0,0,0,.994-3.456q0-4.211-3.306-4.212a3.145,3.145,0,0,0-2.531,1.069,5.207,5.207,0,0,0-.991,3.444,5.029,5.029,0,0,0,.881,3.283,3.015,3.015,0,0,0,2.428.943,3.9,3.9,0,0,0,1.112-.15l2.033,1.184.552-.954Zm-5.05-1.905a5.213,5.213,0,0,1-.517-2.663q0-3.205,1.948-3.206a1.639,1.639,0,0,1,1.5.767,5.189,5.189,0,0,1,.515,2.643q0,3.231-1.948,3.234a1.64,1.64,0,0,1-1.5-.767Zm-2.543-.652a2.247,2.247,0,0,1-.792,1.773,3.11,3.11,0,0,1-2.123.69,4.255,4.255,0,0,1-2.413-.79l.364-.73a4.116,4.116,0,0,0,1.825.5,1.917,1.917,0,0,0,1.2-.337,1.156,1.156,0,0,0,.46-.943c0-.506-.353-.936-.994-1.3-.6-.327-1.784-1.008-1.784-1.008a2.03,2.03,0,0,1-.97-1.806,2.106,2.106,0,0,1,.721-1.664,2.718,2.718,0,0,1,1.872-.637,3.851,3.851,0,0,1,2.148.629l-.327.73a4.182,4.182,0,0,0-1.632-.353,1.444,1.444,0,0,0-1,.316,1.05,1.05,0,0,0-.38.8c0,.5.359.936,1.022,1.3.6.33,1.821,1.028,1.821,1.028a2,2,0,0,1,.994,1.792Zm14.392-8.977a4.7,4.7,0,0,0-1.99.288c-.153.061-.4.061-.42.256.084.081.1.215.169.328a2.353,2.353,0,0,0,.531.624c.215.169.43.331.655.476.4.245.851.391,1.243.638.222.144.449.327.675.48.112.077.184.215.328.264v-.031c-.071-.092-.092-.226-.161-.328-.1-.1-.206-.195-.307-.3a4.944,4.944,0,0,0-1.066-1.035c-.328-.224-1.046-.537-1.181-.913l-.02-.021a4.128,4.128,0,0,0,.706-.163c.348-.092.667-.072,1.028-.163.163-.041.327-.092.491-.144v-.092c-.184-.184-.322-.434-.512-.606A13.6,13.6,0,0,0,34.1,15.783c-.322-.206-.73-.337-1.069-.512-.123-.061-.328-.092-.4-.195a3.955,3.955,0,0,1-.422-.788c-.295-.565-.583-1.189-.839-1.784a10.622,10.622,0,0,0-.522-1.17A10.335,10.335,0,0,0,26.882,7.5a5,5,0,0,0-1.313-.42c-.256-.012-.512-.031-.767-.041a3.722,3.722,0,0,1-.476-.36c-.583-.368-2.092-1.166-2.522-.11-.276.666.41,1.322.647,1.66a4.729,4.729,0,0,1,.522.767c.072.178.092.36.164.546a12.276,12.276,0,0,0,.532,1.376,4.7,4.7,0,0,0,.379.634c.083.112.224.164.256.348a2.986,2.986,0,0,0-.236.767,4.544,4.544,0,0,0,.3,3.452c.164.255.555.819,1.078.6.46-.184.359-.767.491-1.281.031-.123.011-.2.074-.287v.023c.144.288.288.563.42.851A5.772,5.772,0,0,0,27.76,17.4c.245.184.44.5.747.617v-.031h-.023a1.369,1.369,0,0,0-.236-.2,5.284,5.284,0,0,1-.537-.614A13.438,13.438,0,0,1,26.565,15.3c-.169-.322-.31-.669-.445-.986-.061-.123-.061-.307-.164-.368a3.786,3.786,0,0,0-.491.695,5.861,5.861,0,0,0-.288,1.549c-.041.011-.021,0-.041.021-.328-.08-.44-.42-.563-.706a4.453,4.453,0,0,1-.092-2.738c.072-.215.379-.893.256-1.1-.064-.195-.267-.307-.379-.465a3.8,3.8,0,0,1-.368-.655c-.245-.574-.368-1.209-.635-1.783a5.313,5.313,0,0,0-.512-.787,5.162,5.162,0,0,1-.565-.8c-.051-.112-.123-.3-.041-.42a.175.175,0,0,1,.144-.138c.135-.11.514.034.647.1a5.246,5.246,0,0,1,1.016.512c.144.1.3.3.483.347h.215c.328.072.7.021,1,.112a6.564,6.564,0,0,1,1.476.706,9.132,9.132,0,0,1,3.2,3.507c.123.236.176.453.288.7.215.506.48,1.017.7,1.506a6.68,6.68,0,0,0,.73,1.376c.153.215.77.327,1.046.439a7.452,7.452,0,0,1,.706.288c.353.215.7.46,1.028.7.169.117.68.373.71.58Z" transform="translate(0 -6.039)"/>
</svg>
