<svg xmlns="http://www.w3.org/2000/svg" width="25" height="25" viewBox="0 0 25 25">
  <path id="Icon_awesome-bootstrap" data-name="Icon awesome-bootstrap" d="M16.311,17.871a2.221,2.221,0,0,1-2.451,2.312H9.347V15.624H13.86c2.375,0,2.451,1.78,2.451,2.247Zm-2.8-4.081a2,2,0,0,0,2.145-2.026c0-.866-.2-2-2.145-2H9.347V13.79ZM25,6.417V23.083a4.179,4.179,0,0,1-4.167,4.167H4.167A4.179,4.179,0,0,1,0,23.083V6.417A4.179,4.179,0,0,1,4.167,2.25H20.833A4.179,4.179,0,0,1,25,6.417ZM18.864,18.2a3.5,3.5,0,0,0-2.737-3.758V14.4a3.2,3.2,0,0,0,2.084-3.1c0-.391.112-3.615-4.33-3.615H6.794V22.266c7.156,0,7.805.094,9.129-.319A3.751,3.751,0,0,0,18.864,18.2Z" transform="translate(0 -2.25)" fill="#533b78"/>
</svg>
