<svg xmlns="http://www.w3.org/2000/svg" width="33.352" height="25" viewBox="0 0 33.352 25">
  <path id="sass-1" d="M28.6,14.6a6.871,6.871,0,0,0-3.023.7,6.218,6.218,0,0,1-.677-1.564,4.324,4.324,0,0,1-.059-1.316,10.545,10.545,0,0,1,.4-1.42c-.007-.059-.072-.345-.743-.352s-1.251.13-1.316.306a7.482,7.482,0,0,0-.28,1,23.711,23.711,0,0,1-2.039,3.922,4,4,0,0,1-.463-1.147,4.324,4.324,0,0,1-.059-1.316,10.55,10.55,0,0,1,.4-1.42c-.007-.059-.072-.345-.743-.352s-1.251.13-1.316.306-.137.593-.28,1-1.766,4.026-2.189,4.971c-.215.482-.4.866-.541,1.127s-.007.02-.02.046l-.182.345v.007c-.091.163-.189.319-.235.319a2.173,2.173,0,0,1,.013-1.036c.241-1.257.827-3.218.821-3.29,0-.033.111-.378-.378-.554a.594.594,0,0,0-.684.117c-.039,0-.072.1-.072.1s.528-2.208-1.01-2.208A4.569,4.569,0,0,0,10.967,14.9c-.417.228-1.3.71-2.241,1.225-.358.2-.73.4-1.081.593l-.072-.078c-1.863-1.987-5.309-3.394-5.166-6.065C2.459,9.6,2.8,7.039,9.026,3.938c5.1-2.541,9.186-1.844,9.9-.293,1.01,2.215-2.182,6.332-7.485,6.925a3.977,3.977,0,0,1-3.349-.847c-.28-.306-.319-.319-.423-.261-.169.091-.065.365,0,.528a3.145,3.145,0,0,0,1.915,1.5,10.151,10.151,0,0,0,6.208-.612C19,9.639,21.508,6.186,20.771,3.3,20.022.362,15.149-.6,10.543,1.033a23.187,23.187,0,0,0-7.85,4.5C.152,7.906-.251,9.977-.082,10.837c.593,3.068,4.821,5.068,6.515,6.547-.085.046-.163.091-.235.13-.847.417-4.072,2.1-4.879,3.889-.912,2.02.143,3.472.847,3.668A5.206,5.206,0,0,0,7.775,22.8a5.626,5.626,0,0,0,.5-5.179l-.02-.039.664-.391c.43-.254.853-.489,1.225-.691a8.111,8.111,0,0,0-.436,2.215,4.619,4.619,0,0,0,1,3.218,1.1,1.1,0,0,0,.8.261c.717,0,1.042-.593,1.4-1.3.443-.866.834-1.87.834-1.87s-.489,2.717.847,2.717c.489,0,.977-.632,1.2-.958v.007s.013-.02.039-.065.053-.082.078-.124v-.013c.2-.339.632-1.114,1.283-2.4.84-1.655,1.648-3.726,1.648-3.726a11.891,11.891,0,0,0,.319,1.342,12.842,12.842,0,0,0,.7,1.564c-.2.274-.313.43-.313.43l.007.007c-.156.208-.332.43-.515.651a18.934,18.934,0,0,0-1.564,1.961.537.537,0,0,0,.143.717,1.3,1.3,0,0,0,.821.13,3.657,3.657,0,0,0,1.225-.28,4.242,4.242,0,0,0,1.055-.554,2.35,2.35,0,0,0,1.01-2.078,4.178,4.178,0,0,0-.384-1.466c.059-.085.117-.169.176-.261a27.5,27.5,0,0,0,1.824-3.16,11.891,11.891,0,0,0,.319,1.342,9.409,9.409,0,0,0,.593,1.342,5.792,5.792,0,0,0-1.779,2.3c-.384,1.107-.085,1.609.482,1.726a1.734,1.734,0,0,0,.892-.182,4.044,4.044,0,0,0,1.127-.58,2.548,2.548,0,0,0,1.244-2.059,3.946,3.946,0,0,0-.28-1.218,6.347,6.347,0,0,1,3.231-.371c2.9.339,3.472,2.15,3.362,2.906a1.946,1.946,0,0,1-.919,1.3c-.2.124-.267.169-.248.261.026.137.117.13.293.1a2.255,2.255,0,0,0,1.577-2.013c.078-1.792-1.622-3.746-4.638-3.727ZM6.237,22.134c-.958,1.049-2.306,1.446-2.879,1.107-.619-.358-.378-1.9.8-3.016A15.328,15.328,0,0,1,6.42,18.538c.137-.085.345-.208.593-.358a.7.7,0,0,1,.065-.039c.046-.026.1-.059.15-.091a4.156,4.156,0,0,1-.99,4.085Zm7-4.762c-.332.814-1.036,2.906-1.459,2.788-.365-.1-.586-1.681-.072-3.244a7.243,7.243,0,0,1,1.14-2.091c.528-.586,1.1-.782,1.244-.541C14.263,14.6,13.449,16.863,13.24,17.372Zm5.779,2.762c-.143.072-.274.124-.332.085s.059-.124.059-.124.723-.775,1.01-1.134c.163-.208.358-.449.567-.723v.078a2.406,2.406,0,0,1-1.3,1.818Zm4.456-1.016c-.1-.078-.091-.319.261-1.075a4.028,4.028,0,0,1,.99-1.277,1.612,1.612,0,0,1,.1.56A1.833,1.833,0,0,1,23.475,19.118Z" transform="translate(0.116 -0.241)" fill="#cf649a"/>
</svg>
