<svg xmlns="http://www.w3.org/2000/svg" width="25.956" height="25" viewBox="0 0 25.956 25">
  <path id="Icon_simple-jquery" data-name="Icon simple-jquery" d="M1.661,6.342c-2.3,3.3-2.014,7.6-.257,11.106.04.086.084.167.128.248a1.746,1.746,0,0,0,.083.161.914.914,0,0,0,.051.09c.028.056.058.11.088.165l.17.287c.031.053.062.105.1.158.06.1.13.2.192.3.028.042.054.084.086.127q.158.247.336.481c.084.116.169.228.26.341.029.041.062.082.092.123l.239.291c.029.034.058.073.09.107.106.128.219.252.331.378,0,0,0,0,.005.008a3.389,3.389,0,0,0,.459.476c.087.089.173.178.265.264l.109.105c.12.113.24.225.367.334,0,0,0,0,.005,0l.062.054c.11.1.222.193.336.282l.135.114c.092.074.187.144.282.217l.147.113c.1.076.208.151.311.224.038.027.076.054.115.079l.031.025.3.2.13.087c.159.1.317.2.474.293.045.023.091.048.133.074.117.067.238.135.356.2.065.037.132.068.2.1s.166.09.252.135a.351.351,0,0,1,.061.025c.036.016.069.034.1.051.13.065.265.127.406.188a.883.883,0,0,1,.082.037c.156.068.312.133.473.2.037.011.076.029.114.043.146.055.3.112.445.165l.054.019c.166.056.329.11.5.162.039.011.079.025.12.036a5.265,5.265,0,0,0,.512.147c11.11,2.025,14.339-6.68,14.339-6.68-2.713,3.532-7.526,4.464-12.085,3.427-.169-.039-.338-.093-.508-.143q-.309-.091-.614-.2l-.067-.026c-.147-.05-.289-.105-.433-.16q-.059-.024-.119-.044c-.159-.064-.314-.13-.468-.2-.034-.011-.062-.026-.1-.039q-.2-.09-.391-.184c-.04-.017-.076-.036-.115-.056-.1-.048-.2-.1-.3-.154q-.1-.049-.2-.1c-.122-.065-.245-.135-.367-.2-.037-.026-.079-.048-.121-.071q-.239-.142-.474-.291-.065-.041-.128-.086-.172-.106-.338-.223c-.038-.025-.073-.052-.112-.079q-.161-.112-.318-.23c-.045-.037-.094-.071-.143-.108-.1-.075-.192-.146-.287-.225l-.128-.1q-.184-.148-.362-.3a.279.279,0,0,0-.04-.032l-.376-.342-.108-.1c-.089-.09-.18-.177-.271-.265l-.105-.108q-.172-.171-.335-.35l-.016-.017c-.115-.126-.226-.253-.339-.383-.029-.034-.056-.069-.087-.105l-.245-.3q-.187-.24-.368-.485C2.339,12.744,1.424,7.979,3.447,4.071M8.793,3.56a7.973,7.973,0,0,0-.275,8.12,9.854,9.854,0,0,0,.733,1.226,5.743,5.743,0,0,0,.858,1.068c.116.132.241.26.373.389l.1.1q.185.179.379.352l.016.014q.219.191.448.37c.037.025.068.054.1.079.152.117.3.23.462.341l.016.01c.067.049.139.093.214.141.03.019.065.045.1.065.115.074.227.143.343.213.018.008.035.017.052.025.1.06.2.117.305.17.036.022.07.038.107.058.073.036.144.074.213.11l.035.015c.146.071.3.139.442.206.037.014.068.026.1.041.12.052.243.1.363.148.054.018.105.04.156.056.11.041.226.079.336.117l.152.049a3.665,3.665,0,0,0,.485.14C23.982,18.6,25.968,12,25.968,12c-1.788,2.573-5.248,3.8-8.935,2.841q-.245-.063-.485-.141c-.052-.014-.1-.03-.147-.045-.113-.039-.228-.077-.338-.118l-.156-.058c-.121-.049-.245-.094-.363-.146-.037-.016-.07-.027-.1-.043-.152-.068-.3-.135-.452-.208l-.223-.116-.129-.065c-.1-.052-.192-.106-.287-.162a.671.671,0,0,1-.067-.037c-.115-.071-.234-.141-.343-.214-.037-.021-.07-.045-.105-.067l-.225-.147c-.156-.108-.309-.225-.462-.338-.035-.031-.068-.057-.1-.086a10.3,10.3,0,0,1-3.506-4.99,7.754,7.754,0,0,1,.605-6.218m4.642-.159a5,5,0,0,0-.4,4.824,6.808,6.808,0,0,0,3.9,3.644c.07.027.139.05.211.076l.1.029c.1.031.2.068.3.091,4.739.914,6.021-2.433,6.366-2.925-1.128,1.62-3.02,2.009-5.341,1.445a5.245,5.245,0,0,1-.559-.173,6.869,6.869,0,0,1-.668-.275A7.061,7.061,0,0,1,17.532,7.5C15.453,5.926,14.165,2.92,15.521.472" transform="translate(-0.011 -0.472)" fill="#21609b"/>
</svg>
