<svg xmlns="http://www.w3.org/2000/svg" width="48" height="25.26" viewBox="0 0 48 25.26">
  <g id="グループ_84" data-name="グループ 84" transform="translate(-849 -540)">
    <ellipse id="楕円形_1" data-name="楕円形 1" cx="24" cy="12.63" rx="24" ry="12.63" transform="translate(849 540)" fill="#8993be"/>
    <path id="パス_27" data-name="パス 27" d="M35.945,32.5l2.55-12.58h5.9c2.55.155,3.825,1.4,3.825,3.572a5.571,5.571,0,0,1-5.737,5.747H39.61L38.973,32.5Zm4.3-5.591.8-4.659h2.072c1.116,0,1.912.466,1.912,1.4-.159,2.64-1.434,3.106-2.868,3.262H40.248Zm7.376,2.33,2.55-12.58H53.2l-.637,3.261h2.868c2.55.155,3.506,1.4,3.187,2.951L57.5,29.238H54.317l1.116-5.747c.159-.777.159-1.243-.956-1.243H52.086l-1.434,6.989ZM57.3,32.5l2.55-12.58h5.9c2.55.155,3.825,1.4,3.825,3.572a5.571,5.571,0,0,1-5.737,5.747H60.965L60.328,32.5Zm4.3-5.591.8-4.659h2.072c1.116,0,1.912.466,1.912,1.4-.159,2.64-1.434,3.106-2.868,3.262H61.6Z" transform="translate(820.109 528.117)" fill="#232531" fill-rule="evenodd"/>
  </g>
</svg>
