<svg xmlns="http://www.w3.org/2000/svg" width="11.209" height="25" viewBox="0 0 11.209 25">
  <path id="Icon_simple-mongodb" data-name="Icon simple-mongodb" d="M20.929,9.915C19.613,4.123,16.51,2.22,16.177,1.492A9.36,9.36,0,0,1,15.413,0c0,.02,0,.032-.005.051V.065h0c0,.016,0,.026,0,.041V.121h0c0,.01,0,.019,0,.027V.175h0a.2.2,0,0,1,0,.026V.223h0a.074.074,0,0,1,0,.022V.266h0c0,.01,0,.023,0,.033v0l-.009.052V.361h0a.055.055,0,0,0,0,.013V.392h0V.415h-.005V.433h-.005V.455h0v.02h0V.493h-.006V.507h0V.526h0V.541h-.005V.554h0V.57h0a.006.006,0,0,0,0,0v.01h0a.013.013,0,0,0,0,.006V.6h0a.046.046,0,0,0,0,.01L15.3.629v0L15.3.639V.647h0V.655h-.005V.664h0v.01h-.006V.689h0v0h0V.7h0V.713h0V.721h-.006V.732h0V.741h-.005V.749h0v.01h-.005V.768h0V.774h0V.782h-.006V.792h0V.8h-.005V.806h0V.818H15.2v0h0V.83h-.006v0h0v.01h0v0h0V.857h-.005V.864h0l0,0v0h0s0,0,0,0h0a.017.017,0,0,1,0,.007v0h0a.2.2,0,0,0-.012.019h0a.047.047,0,0,0-.009.01v0h0s0,0,0,0v0h0l0,0h0s0,0,0,0v0h0l0,0v0h0s0,0,0,0v0h0s0,0,0,0V.958h0v0h0V.969h0V.977h-.005V.969h-.005v0h0V.979h-.005V.988h-.005v0h0V1h0V1h0V1.01h-.006v0h0v.006h-.005v0h0V1.03h-.005v.01h0v0h-.006V1.05h0v0h0v0h-.005v.01h0v0H15v0h0v.006h-.005v0H14.99v0h0v0h0V1.1h0v.005h-.006v0h0v0h-.005v.006h0v0h-.005v.007h0v0h-.006v.006h0v0h0v0H14.93v0h0v.006h-.005v0h0a0,0,0,0,0,0,0v0h0l0,0,0,0v.006h0v.005h0v0h0v0h0l0,0v0h0l0,0v0h0a.1.1,0,0,1-.015.017l-.012.01a.381.381,0,0,0-.041.033.219.219,0,0,0-.023.018h0l-.051.041h0l-.077.065h0c-.059.049-.122.1-.194.166h0c-.176.154-.385.352-.62.592l-.016.016,0,0a14.342,14.342,0,0,0-3.884,9.455,10.8,10.8,0,0,0,.006,1.192v.009a11.349,11.349,0,0,0,1.488,4.954h0a13.047,13.047,0,0,0,.965,1.464h0a13.33,13.33,0,0,0,2.619,2.631,8.7,8.7,0,0,1,.417,2.895l.671.224a12.493,12.493,0,0,1,.055-2.627,1.623,1.623,0,0,1,.364-.69,8.73,8.73,0,0,0,.83-.672c.019-.02.029-.038.046-.056A11.9,11.9,0,0,0,20.929,9.915Z" transform="translate(-9.927)"/>
</svg>
