<svg xmlns="http://www.w3.org/2000/svg" width="21.875" height="17.188" viewBox="0 0 21.875 17.188">
  <g id="Icon_ionic-logo-javascript" data-name="Icon ionic-logo-javascript" transform="translate(17.188 -1.563)">
    <path id="パス_17" data-name="パス 17" d="M-8.594,1.953H-12.5V12.329c0,2.567-.88,3.284-2.413,3.284a5.837,5.837,0,0,1-1.868-.3l-.407,3.037a9.262,9.262,0,0,0,2.681.4c3.518,0,5.913-1.654,5.913-6.4V1.953Z" fill="#ff0"/>
    <path id="パス_18" data-name="パス 18" d="M-.075,1.563c-3.781,0-6.175,2.148-6.175,4.988,0,2.445,1.843,3.977,4.523,4.964,1.938.691,2.7,1.309,2.7,2.321,0,1.111-.886,1.827-2.561,1.827a8.469,8.469,0,0,1-3.925-1.038h0l-.742,3.087A9.683,9.683,0,0,0-1.8,18.749c4.428,0,6.486-2.371,6.486-5.161,0-2.371-1.316-3.9-4.164-4.988-2.106-.839-2.992-1.308-2.992-2.37,0-.84.766-1.6,2.346-1.6a6.755,6.755,0,0,1,3.247.844l.934-3.125A10.058,10.058,0,0,0-.075,1.563Z" fill="#ff0"/>
  </g>
</svg>
