<svg xmlns="http://www.w3.org/2000/svg" width="70" height="70" viewBox="0 0 70 70">
  <g id="多角形_1" data-name="多角形 1" transform="translate(0 70) rotate(-90)" fill="none" stroke-linecap="round">
    <path d="M30.528,8.944a5,5,0,0,1,8.944,0l26.91,53.82A5,5,0,0,1,61.91,70H8.09a5,5,0,0,1-4.472-7.236Z" stroke="none"/>
    <path d="M 34.9999885559082 11.18032836914062 L 35 11.18034362792969 L 8.090160369873047 65 C 8.090164184570312 65 8.090167999267578 65 8.090171813964844 65 L 61.90982818603516 65 L 34.9999885559082 11.18032836914062 M 35.00000381469727 6.180343627929688 C 36.77541732788086 6.180343627929688 38.55082702636719 7.101654052734375 39.47213363647461 8.94427490234375 L 66.3819580078125 62.76393127441406 C 68.04421234130859 66.08843994140625 65.62673187255859 70 61.90982818603516 70 L 8.090171813964844 70 C 4.373252868652344 70 1.955772399902344 66.08843994140625 3.618026733398438 62.76393127441406 L 30.52786636352539 8.94427490234375 C 31.44918060302734 7.101654052734375 33.22459411621094 6.180343627929688 35.00000381469727 6.180343627929688 Z" stroke="none" fill="#fff"/>
  </g>
</svg>
