<svg xmlns="http://www.w3.org/2000/svg" width="38.38" height="25.109" viewBox="0 0 38.38 25.109">
  <g id="グループ_83" data-name="グループ 83" transform="translate(-1183 -506)">
    <path id="パス_20" data-name="パス 20" d="M16.627,91.262H15.212q-.075-3.644-.413-6.852h-.013l-2.155,6.852H11.554L9.413,84.41H9.4q-.238,3.082-.3,6.852H7.81q.125-4.585.626-8.6H10.19l1.148,3.553.893,2.765h.013L14.3,82.664h1.678q.551,4.7.651,8.6m6.137-6.344a19.586,19.586,0,0,1-2.28,6.932,3.031,3.031,0,0,1-2.417,1.666A2.344,2.344,0,0,1,17.2,93.3v-.767a4.094,4.094,0,0,0,.588.038,1.408,1.408,0,0,0,.99-.344,1.264,1.264,0,0,0,.45-.942,6.358,6.358,0,0,0-.351-1.465l-1.553-4.9h1.39l1.115,3.668a5.025,5.025,0,0,1,.313,1.746,24.3,24.3,0,0,0,1.278-5.414h1.34Z" transform="translate(1175.19 437.593)" fill="#5d87a1"/>
    <path id="パス_21" data-name="パス 21" d="M84.016,90.742H79.925V82.329H81.3v7.377h2.715Zm-5.162.2-1.582-.763a2.911,2.911,0,0,0,.4-.376,5.085,5.085,0,0,0,1.008-3.427q0-4.175-3.352-4.176a3.209,3.209,0,0,0-2.562,1.06,5.069,5.069,0,0,0-1.007,3.415,4.906,4.906,0,0,0,.892,3.252,3.093,3.093,0,0,0,2.461.935,4.05,4.05,0,0,0,1.127-.148l2.059,1.172Zm-5.124-1.887a5.088,5.088,0,0,1-.523-2.641q0-3.177,1.976-3.179A1.669,1.669,0,0,1,76.7,84a5.037,5.037,0,0,1,.523,2.617q0,3.2-1.976,3.2a1.665,1.665,0,0,1-1.517-.761m-2.576-.648a2.211,2.211,0,0,1-.8,1.757,3.208,3.208,0,0,1-2.153.685,4.379,4.379,0,0,1-2.447-.786l.37-.722a4.261,4.261,0,0,0,1.847.5,1.972,1.972,0,0,0,1.218-.335,1.134,1.134,0,0,0,.469-.934c0-.5-.357-.927-1.011-1.285-.6-.324-1.809-1-1.809-1a2,2,0,0,1-.981-1.79,2.069,2.069,0,0,1,.732-1.651,2.8,2.8,0,0,1,1.893-.63,3.991,3.991,0,0,1,2.179.623l-.332.723a4.3,4.3,0,0,0-1.656-.349,1.5,1.5,0,0,0-1.019.312,1.033,1.033,0,0,0-.386.8c0,.5.364.93,1.036,1.295.611.324,1.847,1.013,1.847,1.013a1.979,1.979,0,0,1,1.005,1.778" transform="translate(1133.076 438.053)" fill="#f8981d"/>
    <path id="パス_22" data-name="パス 22" d="M100.871,42.266a4.65,4.65,0,0,0-1.987.293c-.154.063-.4.063-.42.261.083.084.093.219.165.335a2.415,2.415,0,0,0,.532.636c.215.168.43.334.656.48.4.251.85.4,1.238.648.226.146.451.334.678.491.111.084.183.219.327.272V45.65c-.072-.094-.093-.23-.164-.334l-.308-.3a4.92,4.92,0,0,0-1.065-1.054c-.328-.23-1.045-.544-1.178-.929l-.021-.021a4.015,4.015,0,0,0,.707-.169c.349-.094.666-.072,1.024-.166.165-.042.328-.095.493-.146v-.094c-.185-.188-.318-.438-.512-.616a13.661,13.661,0,0,0-1.69-1.285c-.318-.209-.727-.344-1.066-.522-.122-.063-.328-.094-.4-.2a4.285,4.285,0,0,1-.42-.8c-.3-.574-.584-1.211-.839-1.818A11.413,11.413,0,0,0,96.1,36a10.426,10.426,0,0,0-3.964-3.906,4.845,4.845,0,0,0-1.31-.429l-.769-.041a4.082,4.082,0,0,1-.471-.366c-.585-.376-2.09-1.19-2.52-.115-.277.68.41,1.348.645,1.693a4.807,4.807,0,0,1,.522.783c.072.178.092.366.165.554a12.664,12.664,0,0,0,.533,1.4,5.005,5.005,0,0,0,.379.646c.082.116.225.167.257.356a3.041,3.041,0,0,0-.236.783,4.685,4.685,0,0,0,.3,3.51c.163.261.553.836,1.075.616.462-.188.359-.783.492-1.305.03-.126.01-.209.072-.292v.02c.143.292.287.574.42.867a5.9,5.9,0,0,0,1.332,1.4c.245.189.44.512.747.628v-.031h-.02a1.154,1.154,0,0,0-.235-.208,5.043,5.043,0,0,1-.533-.627,13.5,13.5,0,0,1-1.147-1.9c-.165-.324-.307-.679-.44-1-.062-.125-.062-.313-.165-.376a3.907,3.907,0,0,0-.491.71,6.012,6.012,0,0,0-.288,1.579l-.04.02c-.326-.084-.44-.428-.564-.72a4.609,4.609,0,0,1-.092-2.789c.071-.219.38-.908.257-1.117-.062-.2-.267-.314-.379-.471a4.27,4.27,0,0,1-.369-.668c-.246-.585-.369-1.233-.634-1.817a5.64,5.64,0,0,0-.512-.805,5.176,5.176,0,0,1-.564-.815c-.051-.115-.123-.3-.041-.428a.164.164,0,0,1,.143-.136c.133-.114.512.031.645.094a5.152,5.152,0,0,1,1.014.522c.143.1.3.3.481.356H90c.327.073.7.02,1,.115a6.54,6.54,0,0,1,1.475.72,9.2,9.2,0,0,1,3.2,3.573c.123.24.175.46.287.71.216.512.483,1.035.7,1.536a6.93,6.93,0,0,0,.728,1.4c.153.219.769.334,1.045.449a7.147,7.147,0,0,1,.707.292c.348.219.7.47,1.023.711.163.125.676.386.706.6M90.422,33.189a1.566,1.566,0,0,0-.419.053v.021h.02a3.4,3.4,0,0,0,.328.428c.083.167.154.334.235.5l.02-.021a.592.592,0,0,0,.216-.522,2.4,2.4,0,0,1-.124-.219c-.06-.1-.193-.157-.276-.24" transform="translate(1117.757 475.394)" fill="#5d87a1"/>
    <path id="パス_23" data-name="パス 23" d="M136.623,111.843h.3V109.79h-.446l-.364,1.4-.4-1.4h-.43v2.054h.281v-1.563h.016l.414,1.563h.214l.413-1.563v1.563Zm-2.4,0h.315v-1.706h.412v-.349H133.8v.349h.429Z" transform="translate(1084.46 418.155)" fill="#f8981d"/>
  </g>
</svg>
