<svg xmlns="http://www.w3.org/2000/svg" width="50" height="48.959" viewBox="0 0 50 48.959">
  <path id="github" d="M25,5.329a25.115,25.115,0,0,0-7.9,48.916c1.25.231,1.706-.544,1.706-1.209,0-.6-.022-2.175-.034-4.269C11.819,50.282,10.35,45.4,10.35,45.4c-1.134-2.9-2.775-3.672-2.775-3.672C5.3,40.173,7.744,40.2,7.744,40.2a5.251,5.251,0,0,1,3.828,2.587c2.231,3.834,5.853,2.728,7.278,2.084a5.358,5.358,0,0,1,1.588-3.356c-5.55-.634-11.388-2.788-11.388-12.4a9.729,9.729,0,0,1,2.575-6.738,9.044,9.044,0,0,1,.244-6.641s2.1-.675,6.875,2.572a23.6,23.6,0,0,1,12.519,0c4.772-3.247,6.869-2.572,6.869-2.572a9.058,9.058,0,0,1,.25,6.641A9.71,9.71,0,0,1,40.95,29.12c0,9.641-5.844,11.762-11.413,12.384a6,6,0,0,1,1.7,4.647c0,3.356-.031,6.063-.031,6.884,0,.672.45,1.453,1.719,1.206A25.117,25.117,0,0,0,25,5.329Z" transform="translate(0 -5.329)" fill="#fff"/>
</svg>
