<svg xmlns="http://www.w3.org/2000/svg" width="11.229" height="25" viewBox="0 0 11.229 25">
  <g id="mongodb-icon-1" transform="translate(-8.813 0)">
    <path id="パス_24" data-name="パス 24" d="M15.9.087l.854,1.2a4.015,4.015,0,0,0,.645.6,19.559,19.559,0,0,1,2,1.693,13.7,13.7,0,0,1,3.12,4.7,8.91,8.91,0,0,1,.662,3.19c.07,3.23-1.412,6-4.4,8.309a12.467,12.467,0,0,1-1.57,1,.663.663,0,0,1-.558-.326,2.274,2.274,0,0,1-.436-.938,3.428,3.428,0,0,1-.14-1.185V18.15C16.057,18.111,15.8.179,15.9.087Z" transform="translate(-3.145)" fill="#599636"/>
    <path id="パス_25" data-name="パス 25" d="M15.9.025c-.035-.053-.07-.013-.1.013a1.013,1.013,0,0,1-.3.721,4.232,4.232,0,0,1-.767.576A13.872,13.872,0,0,0,10.985,4.92a11.79,11.79,0,0,0-2.16,5.861,14.886,14.886,0,0,0,.627,4.134,12.744,12.744,0,0,0,4.375,5.168c.488.353,1.01.68,1.55.995.157,0,.174-.105.21-.183a2.855,2.855,0,0,0,.157-.51l.35-1.962Z" fill="#6cac48"/>
    <path id="パス_26" data-name="パス 26" d="M16.754,28.845a2.386,2.386,0,0,1,.436-1.063,1.1,1.1,0,0,1-.488-.453,3.235,3.235,0,0,1-.26-.575,9.952,9.952,0,0,1-.366-2.248v-.453a2.173,2.173,0,0,0-.1.75,17.37,17.37,0,0,1-.314,2.353,2.094,2.094,0,0,1-.28.906.347.347,0,0,0,.017.122,10.407,10.407,0,0,1,.453,2.824v.35c0,.418-.017.33.33.47a1.529,1.529,0,0,1,.436.174c.1,0,.122-.087.122-.157l-.052-.575v-1.6a4.242,4.242,0,0,1,.07-.82Z" transform="translate(-1.644 -7.002)" fill="#c2bfbf"/>
  </g>
</svg>
