<svg xmlns="http://www.w3.org/2000/svg" width="28.57" height="25" viewBox="0 0 28.57 25">
  <path id="Icon_awesome-react" data-name="Icon awesome-react" d="M23.336,10.352q-.452-.151-.9-.285c.05-.206.095-.413.14-.619.686-3.326.234-6-1.289-6.88C19.815,1.726,17.421,2.6,15,4.711c-.24.206-.474.424-.7.642-.151-.145-.307-.29-.463-.43C11.3,2.669,8.755,1.72,7.232,2.607c-1.462.848-1.9,3.365-1.283,6.512.061.312.128.619.206.932-.357.1-.709.212-1.038.329C2.137,11.413,0,13.042,0,14.727c0,1.741,2.277,3.488,5.374,4.548.251.084.5.167.759.24-.084.335-.156.664-.223,1-.586,3.1-.128,5.552,1.334,6.395,1.507.87,4.04-.022,6.506-2.182.2-.173.391-.352.586-.541.246.24.5.469.759.692,2.388,2.053,4.749,2.885,6.205,2.042,1.507-.87,2-3.51,1.362-6.724q-.075-.368-.167-.753c.179-.05.352-.106.525-.162,3.22-1.066,5.552-2.79,5.552-4.559,0-1.691-2.2-3.331-5.234-4.375Zm-7.55-4.737C17.862,3.807,19.8,3.1,20.68,3.606c.943.541,1.306,2.729.714,5.6-.039.19-.078.374-.128.558a28.566,28.566,0,0,0-3.755-.591,28.193,28.193,0,0,0-2.377-2.963c.218-.206.43-.4.653-.6ZM9.33,17.623c.285.485.575.971.882,1.445a25.267,25.267,0,0,1-2.589-.419,26.067,26.067,0,0,1,.91-2.483c.257.491.519.977.8,1.456ZM7.639,10.91c.8-.179,1.657-.324,2.545-.435-.3.463-.586.937-.859,1.417s-.541.96-.792,1.451c-.352-.831-.647-1.646-.893-2.433Zm1.529,3.845c.368-.77.77-1.523,1.194-2.266s.882-1.462,1.362-2.171c.837-.061,1.691-.095,2.561-.095s1.73.033,2.561.095q.711,1.055,1.356,2.159t1.211,2.254q-.561,1.155-1.205,2.277c-.424.742-.876,1.462-1.35,2.176-.831.061-1.7.089-2.572.089s-1.724-.028-2.545-.078q-.728-1.063-1.373-2.176C9.938,16.278,9.542,15.525,9.168,14.755Zm10.078,2.857c.285-.491.552-.988.815-1.49A25.9,25.9,0,0,1,21,18.594a24.509,24.509,0,0,1-2.623.446C18.682,18.572,18.967,18.092,19.246,17.612Zm.8-4.269c-.262-.491-.53-.982-.809-1.462s-.558-.943-.854-1.406a25.678,25.678,0,0,1,2.561.446,24.7,24.7,0,0,1-.9,2.422ZM14.3,7.066a24.5,24.5,0,0,1,1.652,2c-1.1-.05-2.215-.05-3.32,0C13.175,8.344,13.738,7.674,14.3,7.066ZM7.823,3.645c.937-.547,3.019.234,5.212,2.176.14.123.279.257.424.391a28.35,28.35,0,0,0-2.394,2.963,29.414,29.414,0,0,0-3.75.58c-.073-.285-.134-.575-.2-.865-.525-2.7-.179-4.737.7-5.245ZM6.456,18.354c-.234-.067-.463-.14-.692-.218A11.381,11.381,0,0,1,2.249,16.4,2.5,2.5,0,0,1,1.2,14.727c0-1.021,1.763-2.327,4.308-3.214.318-.112.642-.212.965-.307A29.671,29.671,0,0,0,7.84,14.755a30.5,30.5,0,0,0-1.384,3.6Zm6.506,5.468a10.213,10.213,0,0,1-3.147,1.97,2.47,2.47,0,0,1-1.97.073c-.887-.513-1.256-2.483-.753-5.134.061-.312.128-.625.206-.932a27.915,27.915,0,0,0,3.789.547,29.448,29.448,0,0,0,2.411,2.98C13.32,23.5,13.141,23.666,12.962,23.823Zm1.367-1.356c-.569-.614-1.138-1.295-1.691-2.026.536.022,1.088.033,1.646.033.575,0,1.138-.011,1.7-.039a24.064,24.064,0,0,1-1.652,2.031Zm7.293,1.674a2.48,2.48,0,0,1-.921,1.747c-.887.513-2.779-.156-4.821-1.908-.234-.2-.469-.419-.709-.642a27.6,27.6,0,0,0,2.355-2.991,27.508,27.508,0,0,0,3.806-.586c.056.229.106.458.151.681A10.172,10.172,0,0,1,21.623,24.141Zm1.016-6c-.156.05-.312.1-.474.145a28.347,28.347,0,0,0-1.423-3.56,28.2,28.2,0,0,0,1.367-3.51c.29.084.569.173.837.262,2.6.893,4.425,2.221,4.425,3.236,0,1.094-1.947,2.505-4.732,3.426Zm-8.353-.837a2.556,2.556,0,1,0-2.556-2.556A2.555,2.555,0,0,0,14.285,17.305Z" transform="translate(0 -2.251)" fill="#54bdd9"/>
</svg>
