<svg xmlns="http://www.w3.org/2000/svg" width="47.534" height="25" viewBox="0 0 47.534 25">
  <path id="Icon_awesome-php" data-name="Icon awesome-php" d="M23.767,7.414c12.73,0,22.519,5.362,22.519,11.252s-9.8,11.252-22.519,11.252S1.248,24.556,1.248,18.666s9.8-11.252,22.519-11.252m0-1.248C10.643,6.166,0,11.759,0,18.666s10.643,12.5,23.767,12.5,23.767-5.593,23.767-12.5S36.891,6.166,23.767,6.166Zm-7.561,11.5c-.587,3.008-2.659,2.7-5.206,2.7l1.018-5.244C14.84,15.116,16.756,14.812,16.206,17.664ZM7.234,25.67H9.96l.646-3.327c3.053,0,4.947.223,6.7-1.419,1.939-1.783,2.444-4.954,1.062-6.543a4.346,4.346,0,0,0-3.454-1.24H9.663ZM21.026,9.806h2.711l-.646,3.327c2.34,0,4.508-.171,5.556.795,1.1,1.01.572,2.3-.616,8.4H25.282c1.144-5.9,1.359-6.387.943-6.833s-1.315-.342-3.521-.342l-1.4,7.175H18.6L21.026,9.806Zm16.481,7.858c-.594,3.053-2.726,2.7-5.206,2.7l1.018-5.244C36.156,15.116,38.057,14.812,37.507,17.664ZM28.535,25.67h2.733l.646-3.327c3.209,0,4.984.186,6.7-1.419,1.938-1.783,2.444-4.954,1.062-6.543a4.346,4.346,0,0,0-3.454-1.24H30.971L28.535,25.67Z" transform="translate(0 -6.166)"/>
</svg>
