<svg xmlns="http://www.w3.org/2000/svg" width="50" height="41.591" viewBox="0 0 50 41.591">
  <path id="twitter" d="M49.205,39.329a19.8,19.8,0,0,1-3.447,1.163,10.749,10.749,0,0,0,2.837-4.519h0a.564.564,0,0,0-.824-.656h0A19.893,19.893,0,0,1,42.5,37.494a1.343,1.343,0,0,1-.329.041,1.4,1.4,0,0,1-.923-.352,10.779,10.779,0,0,0-7.132-2.692,11.525,11.525,0,0,0-3.415.527,10.443,10.443,0,0,0-7.038,7.524,11.5,11.5,0,0,0-.256,3.969.386.386,0,0,1-.1.3.4.4,0,0,1-.3.135l-.038,0A28.265,28.265,0,0,1,3.546,36.568h0a.564.564,0,0,0-.924.072h0a10.792,10.792,0,0,0,1.754,13.1,9.66,9.66,0,0,1-2.459-.952h0a.564.564,0,0,0-.837.486h0a10.793,10.793,0,0,0,6.3,9.944l-.23,0a9.7,9.7,0,0,1-1.816-.173h0a.564.564,0,0,0-.643.726h0a10.8,10.8,0,0,0,8.534,7.348A19.891,19.891,0,0,1,2.08,70.508H.833a.825.825,0,0,0-.807.622.854.854,0,0,0,.409.944A29.586,29.586,0,0,0,15.3,76.082a29.992,29.992,0,0,0,12.7-2.7,28.055,28.055,0,0,0,9.3-6.966,30.539,30.539,0,0,0,5.692-9.533A30.115,30.115,0,0,0,44.93,46.454V46.29a1.834,1.834,0,0,1,.686-1.428,21.306,21.306,0,0,0,4.286-4.7h0a.564.564,0,0,0-.7-.828Z" transform="translate(0 -34.491)" fill="#fff"/>
</svg>
